<?xml version="1.0" encoding="UTF-8" standalone="no"?>
<!-- Created with Inkscape (http://www.inkscape.org/) -->

<svg
   version="1.1"
   id="svg2"
   width="188.97333"
   height="117.24"
   viewBox="0 0 188.97333 117.24"
   sodipodi:docname="Hofor_rgb_pos.eps"
   xmlns:inkscape="http://www.inkscape.org/namespaces/inkscape"
   xmlns:sodipodi="http://sodipodi.sourceforge.net/DTD/sodipodi-0.dtd"
   xmlns="http://www.w3.org/2000/svg"
   xmlns:svg="http://www.w3.org/2000/svg">
  <defs
     id="defs6" />
  <sodipodi:namedview
     id="namedview4"
     pagecolor="#ffffff"
     bordercolor="#000000"
     borderopacity="0.25"
     inkscape:showpageshadow="2"
     inkscape:pageopacity="0.0"
     inkscape:pagecheckerboard="0"
     inkscape:deskcolor="#d1d1d1" />
  <g
     id="g8"
     inkscape:groupmode="layer"
     inkscape:label="ink_ext_XXXXXX"
     transform="matrix(1.3333333,0,0,-1.3333333,0,117.24)">
    <g
       id="g10"
       transform="scale(0.1)">
      <path
         d="m 37.0898,575.195 c 0,3.496 -2.8476,6.317 -6.371,6.317 H 6.35156 C 2.85156,581.512 0,578.691 0,575.195 V 391.504 h 37.0898 v 183.691"
         style="fill:#9ed747;fill-opacity:1;fill-rule:nonzero;stroke:none"
         id="path12" />
      <path
         d="m 116.797,575.195 c 0,3.496 -2.863,6.317 -6.399,6.317 H 86.0703 c -3.5156,0 -6.3789,-2.821 -6.3789,-6.317 V 391.504 h 37.1056 v 183.691"
         style="fill:#9ed747;fill-opacity:1;fill-rule:nonzero;stroke:none"
         id="path14" />
      <path
         d="m 196.488,575.195 c 0,3.496 -2.855,6.317 -6.383,6.317 h -24.347 c -3.512,0 -6.375,-2.821 -6.375,-6.317 V 391.504 h 37.105 v 183.691"
         style="fill:#9ed747;fill-opacity:1;fill-rule:nonzero;stroke:none"
         id="path16" />
      <path
         d="m 276.168,707.629 c 0,3.492 -2.859,6.312 -6.375,6.312 h -24.328 c -3.535,0 -6.387,-2.82 -6.387,-6.312 V 391.504 h 37.09 v 316.125"
         style="fill:#9ed747;fill-opacity:1;fill-rule:nonzero;stroke:none"
         id="path18" />
      <path
         d="m 355.867,707.629 c 0,3.492 -2.855,6.312 -6.379,6.312 h -24.332 c -3.531,0 -6.398,-2.82 -6.398,-6.312 V 391.504 h 37.109 v 316.125"
         style="fill:#9ed747;fill-opacity:1;fill-rule:nonzero;stroke:none"
         id="path20" />
      <path
         d="m 435.566,707.629 c 0,3.492 -2.855,6.312 -6.386,6.312 h -24.332 c -3.516,0 -6.371,-2.82 -6.371,-6.312 V 391.504 h 37.089 v 316.125"
         style="fill:#9ed747;fill-opacity:1;fill-rule:nonzero;stroke:none"
         id="path22" />
      <path
         d="m 515.258,638.121 c 0,3.477 -2.856,6.317 -6.391,6.317 H 484.52 c -3.504,0 -6.36,-2.84 -6.36,-6.317 V 391.504 h 37.098 v 246.617"
         style="fill:#9ed747;fill-opacity:1;fill-rule:nonzero;stroke:none"
         id="path24" />
      <path
         d="m 594.961,638.121 c 0,3.477 -2.863,6.317 -6.387,6.317 h -24.347 c -3.5,0 -6.379,-2.84 -6.379,-6.317 V 391.504 h 37.113 v 246.617"
         style="fill:#9ed747;fill-opacity:1;fill-rule:nonzero;stroke:none"
         id="path26" />
      <path
         d="m 674.664,638.121 c 0,3.477 -2.887,6.317 -6.387,6.317 H 643.91 c -3.5,0 -6.371,-2.84 -6.371,-6.317 V 391.504 h 37.125 v 246.617"
         style="fill:#9ed747;fill-opacity:1;fill-rule:nonzero;stroke:none"
         id="path28" />
      <path
         d="m 754.336,873.016 c 0,3.504 -2.863,6.336 -6.387,6.336 h -24.332 c -3.515,0 -6.375,-2.832 -6.375,-6.336 V 391.504 h 37.094 v 481.512"
         style="fill:#9ed747;fill-opacity:1;fill-rule:nonzero;stroke:none"
         id="path30" />
      <path
         d="m 834.039,873.016 c 0,3.504 -2.871,6.336 -6.387,6.336 H 803.32 c -3.515,0 -6.386,-2.832 -6.386,-6.336 V 391.504 h 37.105 v 481.512"
         style="fill:#9ed747;fill-opacity:1;fill-rule:nonzero;stroke:none"
         id="path32" />
      <path
         d="m 913.672,873.016 c 0,3.504 -2.871,6.336 -6.399,6.336 h -24.324 c -3.527,0 -6.379,-2.832 -6.379,-6.336 V 391.504 h 37.102 v 481.512"
         style="fill:#9ed747;fill-opacity:1;fill-rule:nonzero;stroke:none"
         id="path34" />
      <path
         d="m 993.445,747.109 c 0,3.489 -2.879,6.329 -6.414,6.329 h -24.316 c -3.555,0 -6.367,-2.84 -6.367,-6.329 V 391.504 h 37.097 v 355.605"
         style="fill:#9ed747;fill-opacity:1;fill-rule:nonzero;stroke:none"
         id="path36" />
      <path
         d="m 1073.12,747.109 c 0,3.489 -2.87,6.329 -6.38,6.329 h -24.36 c -3.51,0 -6.37,-2.84 -6.37,-6.329 V 391.504 h 37.11 v 355.605"
         style="fill:#9ed747;fill-opacity:1;fill-rule:nonzero;stroke:none"
         id="path38" />
      <path
         d="m 1152.82,747.109 c 0,3.489 -2.87,6.329 -6.4,6.329 h -24.35 c -3.51,0 -6.36,-2.84 -6.36,-6.329 V 391.504 h 37.11 v 355.605"
         style="fill:#9ed747;fill-opacity:1;fill-rule:nonzero;stroke:none"
         id="path40" />
      <path
         d="m 1232.52,575.195 c 0,3.496 -2.87,6.317 -6.4,6.317 h -24.34 c -3.52,0 -6.36,-2.821 -6.36,-6.317 V 391.504 h 37.1 v 183.691"
         style="fill:#9ed747;fill-opacity:1;fill-rule:nonzero;stroke:none"
         id="path42" />
      <path
         d="m 1312.21,575.195 c 0,3.496 -2.88,6.317 -6.38,6.317 h -24.36 c -3.5,0 -6.35,-2.821 -6.35,-6.317 V 391.504 h 37.09 v 183.691"
         style="fill:#9ed747;fill-opacity:1;fill-rule:nonzero;stroke:none"
         id="path44" />
      <path
         d="m 1391.89,575.195 c 0,3.496 -2.87,6.317 -6.39,6.317 h -24.33 c -3.52,0 -6.38,-2.821 -6.38,-6.317 V 391.504 h 37.1 v 183.691"
         style="fill:#9ed747;fill-opacity:1;fill-rule:nonzero;stroke:none"
         id="path46" />
      <path
         d="M 502.918,212.809 V 106 c 0,-41.5469 -25.664,-62.582 -76.289,-62.582 -50.606,0 -76.277,21.0351 -76.277,62.582 v 106.809 c 0,41.527 25.671,62.574 76.277,62.574 50.625,0 76.289,-21.047 76.289,-62.574 z m -76.289,105.98 c -79.285,0 -124.758,-38.266 -124.758,-104.976 V 104.98 C 301.871,38.2422 347.344,0 426.629,0 505.922,0 551.395,38.2422 551.395,104.98 v 108.833 c 0,66.71 -45.473,104.976 -124.766,104.976"
         style="fill:#231f20;fill-opacity:1;fill-rule:nonzero;stroke:none"
         id="path48" />
      <path
         d="M 1052.12,212.809 V 106 c 0,-41.5469 -25.67,-62.582 -76.253,-62.582 -50.664,0 -76.308,21.0351 -76.308,62.582 v 106.809 c 0,41.527 25.644,62.574 76.308,62.574 50.583,0 76.253,-21.047 76.253,-62.574 z m -76.253,105.98 c -79.324,0 -124.793,-38.266 -124.793,-104.976 V 104.98 C 851.074,38.2422 896.543,0 975.867,0 1055.14,0 1100.6,38.2422 1100.6,104.98 v 108.833 c 0,66.71 -45.46,104.976 -124.733,104.976"
         style="fill:#231f20;fill-opacity:1;fill-rule:nonzero;stroke:none"
         id="path50" />
      <path
         d="M 809.652,312.977 H 616.543 c -3.508,0 -6.363,-2.856 -6.363,-6.36 V 12.207 c 0,-3.51559 2.855,-6.38669 6.363,-6.38669 h 35.746 c 3.531,0 6.379,2.8711 6.379,6.38669 V 127.07 H 799 c 3.523,0 6.355,2.848 6.367,6.36 h 0.012 v 31.175 l -0.012,0.008 c -0.012,3.516 -2.844,6.364 -6.367,6.364 H 658.668 v 98.082 h 150.984 c 3.528,0 6.379,2.859 6.379,6.379 v 31.179 c 0,3.504 -2.851,6.36 -6.379,6.36"
         style="fill:#231f20;fill-opacity:1;fill-rule:nonzero;stroke:none"
         id="path52" />
      <path
         d="m 1338.37,226.793 c 0,31.984 -12.95,42.266 -53.42,42.266 h -81.38 V 157.016 h 81.38 c 39.94,0 53.42,10.644 53.42,42.246 z M 1414.56,6.93359 c -1.04,-0.70312 -2.18,-1.04687 -3.33,-1.11328 0,0 -41,0 -41.05,0 -1.94,0 -3.92,0.98438 -5.14,2.73438 -0.01,0.00781 -81.7,104.10531 -81.7,104.10531 h -79.77 V 12.207 c 0,-3.51559 -2.85,-6.38669 -6.35,-6.38669 h -35.75 c -3.52,0 -6.34,2.8711 -6.34,6.38669 v 294.41 c 0,3.504 2.82,6.36 6.34,6.36 h 125 c 68.49,0 100.41,-27.211 100.41,-85.668 v -8.993 c 0,-43.183 -16.68,-87.23 -52.4,-98.574 0,0 81.75,-104.0193 81.8,-104.0779 1.9,-2.9024 1.12,-6.78519 -1.72,-8.73051"
         style="fill:#231f20;fill-opacity:1;fill-rule:nonzero;stroke:none"
         id="path54" />
      <path
         d="m 238.375,312.977 h -35.723 c -3.535,0 -6.386,-2.856 -6.386,-6.372 V 184.918 H 48.4727 v 121.687 c 0,3.516 -2.8672,6.372 -6.3672,6.372 H 6.35156 C 2.85156,312.977 0,310.121 0,306.605 V 12.2188 C 0,8.69922 2.85156,5.83984 6.35156,5.83984 H 42.1055 c 3.5,0 6.3672,2.85938 6.3672,6.37896 V 141.016 H 196.266 V 12.2188 c 0,-3.51958 2.851,-6.37896 6.386,-6.37896 h 35.723 c 3.508,0 6.371,2.85938 6.371,6.37896 V 306.605 c 0,3.516 -2.863,6.372 -6.371,6.372"
         style="fill:#231f20;fill-opacity:1;fill-rule:nonzero;stroke:none"
         id="path56" />
    </g>
  </g>
</svg>
