<?xml version="1.0" encoding="utf-8"?>
<!-- Generator: Adobe Illustrator 28.1.0, SVG Export Plug-In . SVG Version: 6.00 Build 0)  -->
<svg version="1.1" id="TEC" xmlns="http://www.w3.org/2000/svg" xmlns:xlink="http://www.w3.org/1999/xlink" x="0px" y="0px"
	 viewBox="0 0 1422.5244141 850.3936768" style="enable-background:new 0 0 1422.5244141 850.3936768;" xml:space="preserve">
<path d="M566.9291382,283.4646912v24.7067871H283.4645996v-24.7067871H566.9291382z M408.7176514,341.4945374H283.4645996
	v24.7067871h100.5462646v200.7279358h24.7067871V341.4945374z M441.6774902,566.9292603h24.7067871V366.2013245h100.5448608
	v-24.7067871H441.6774902V566.9292603z M608.0314941,566.9292603V283.4646912h234.640625v24.7067871H632.7382812v234.0509949
	h209.9338379v24.7067871H608.0314941z M665.6970825,409.6302185h127.9441528v-24.7067871H690.4038696v-18.7221069h152.2682495
	v-24.7067871H665.6970825V409.6302185z M665.6970825,508.8994446h176.9750366v-24.7067871H690.4038696v-20.1807251h103.2373657
	v-24.7067871H665.6970825V508.8994446z M908.9805298,532.0203247
	c-27.725647-26.839386-42.9949951-64.5818481-42.9949951-106.2754517c0-41.5489807,15.4187012-79.4733887,43.4182129-106.7897034
	c27.0744629-26.4163513,63.4829712-40.9642944,102.5132446-40.9642944c37.5969238,0,70.2476807,11.3300171,94.4173584,32.7632446
	c15.9874268,14.1781616,25.5808105,30.0529785,31.3183594,43.4349976
	c-6.9128418,3.0652771-14.5684814,6.4572449-22.68396,10.0544739
	c-10.1241455-23.5664062-36.7203369-61.5475464-103.0517578-61.5475464
	c-69.1104126,0-121.2258911,52.899353-121.2258911,123.0488281c0,70.6654053,51.2900391,121.9556274,121.9544067,121.9556274
	c37.2025146,0,83.6958008-16.3153076,104.0396729-60.6372375c8.02771,3.5526733,15.5811768,6.8936157,22.3746338,9.895813
	c-18.1308594,38.7564392-58.4857178,75.4465637-126.4143066,75.4465637
	C972.6993408,572.4056396,935.8820801,558.0635986,908.9805298,532.0203247z M1011.9169922,358.9006042
	c31.4781494,0,44.9420166,16.4975891,50.5799561,28.5956116c7.5087891-3.3258667,15.1134033-6.6940918,22.6328125-10.0261536
	c-10.3809814-22.8639832-33.520874-43.2746277-73.2127686-43.2746277c-42.7735596,0-86.0764771,31.4474487-86.0764771,91.5494385
	c0,26.3215332,9.1846924,48.9629211,26.5621948,65.4782104c15.9572144,15.1660461,37.3531494,23.5174561,60.2427979,23.5174561
	c37.9454346,0,61.5189209-19.2639771,73.274292-41.2982483c-7.4853516-3.3153687-15.0610352-6.6713562-22.5489502-9.9891968
	c-13.7770996,24.4274292-41.5446167,26.5822449-50.7253418,26.5822449c-40.7689819,0-62.0994263-32.3420105-62.0994263-64.2904663
	C950.5460815,379.8179321,982.3583374,358.9006042,1011.9169922,358.9006042z"/>
</svg>
