<?xml version="1.0" encoding="UTF-8" standalone="no"?>
<!-- Created with Inkscape (http://www.inkscape.org/) -->

<svg
   version="1.1"
   id="svg2"
   width="1616"
   height="1616"
   viewBox="0 0 1616 1616"
   sodipodi:docname="Tietgenfonden-Privatbanksgrøn-RGB.ai"
   xmlns:inkscape="http://www.inkscape.org/namespaces/inkscape"
   xmlns:sodipodi="http://sodipodi.sourceforge.net/DTD/sodipodi-0.dtd"
   xmlns="http://www.w3.org/2000/svg"
   xmlns:svg="http://www.w3.org/2000/svg">
  <defs
     id="defs6">
    <clipPath
       clipPathUnits="userSpaceOnUse"
       id="clipPath16">
      <path
         d="M 0,1212 H 1212 V 0 H 0 Z"
         id="path14" />
    </clipPath>
  </defs>
  <sodipodi:namedview
     id="namedview4"
     pagecolor="#ffffff"
     bordercolor="#000000"
     borderopacity="0.25"
     inkscape:showpageshadow="2"
     inkscape:pageopacity="0.0"
     inkscape:pagecheckerboard="0"
     inkscape:deskcolor="#d1d1d1" />
  <g
     id="g8"
     inkscape:groupmode="layer"
     inkscape:label="Tietgenfonden-Privatbanksgrøn-RGB"
     transform="matrix(1.3333333,0,0,-1.3333333,0,1616)">
    <g
       id="g10">
      <g
         id="g12"
         clip-path="url(#clipPath16)">
        <g
           id="g18"
           transform="translate(979.7764,513.2646)">
          <path
             d="m 0,0 c -24.757,24.757 -61.109,22.986 -88.402,-4.306 -27.293,-27.293 -29.064,-63.645 -4.306,-88.402 24.757,-24.757 61.109,-22.986 88.401,4.306 C 22.986,-61.109 24.757,-24.757 0,0 m 10.049,-102.757 c -36.59,-36.59 -85.339,-38.951 -118.548,-5.742 -33.208,33.209 -30.848,81.957 5.743,118.547 36.59,36.59 85.338,38.951 118.546,5.743 33.21,-33.21 30.849,-81.958 -5.741,-118.548 m -370.271,667.541 50.528,-50.527 -48.949,-48.949 c -18.086,2.871 -44.908,10.458 -68.306,33.856 -40.766,40.766 -31.58,88.136 -4.163,115.553 27.561,27.56 75.217,36.174 116.845,-5.454 24.833,-24.834 28.996,-48.232 29.571,-62.586 l -21.82,-2.01 c 0.287,11.483 -2.584,30.719 -21.962,50.097 -30.144,30.145 -65.599,25.408 -86.844,4.163 -22.106,-22.106 -25.264,-57.418 3.732,-86.414 16.939,-16.938 35.291,-23.233 45.626,-24.956 l 27.848,27.848 -35.742,35.742 z m 31.601,-905.485 c -34.594,34.595 -66.892,22.394 -84.548,4.738 -19.522,-19.522 -30.144,-50.241 3.876,-84.262 l 32.297,-32.297 80.099,80.098 z m -94.883,-92.873 c -39.906,39.905 -34.881,83.974 -5.455,113.4 29.427,29.427 73.064,34.308 113.688,-6.315 l 47.513,-47.514 -107.658,-107.659 z M 34.418,256.845 49.49,241.772 -58.168,134.114 l -16.077,16.077 10.335,163.354 -86.845,-86.844 -15.072,15.072 107.658,107.659 15.791,-15.791 -10.335,-163.928 z M 88.268,200.167 195.926,92.509 106.38,2.962 92.6,16.743 166.786,90.93 135.925,121.792 68.33,54.197 54.55,67.978 l 67.595,67.594 -49.237,49.236 z m -292.601,295.43 87.849,-87.85 -13.781,-13.78 -72.49,72.49 -30.861,-30.862 66.604,-66.605 -13.78,-13.78 -66.604,66.605 -35.457,-35.456 73.496,-73.495 -13.781,-13.78 -88.854,88.854 z m -571.827,-576.515 -15.072,15.072 107.659,107.659 16.076,-16.078 -10.335,-163.353 86.845,86.845 15.072,-15.073 -107.659,-107.659 -15.789,15.79 10.335,163.929 z m 238.752,-238.752 -87.85,87.85 13.78,13.78 72.491,-72.49 30.862,30.862 -66.604,66.605 13.78,13.78 66.604,-66.605 35.456,35.455 -73.495,73.496 13.78,13.78 88.854,-88.855 z m 342.093,18.109 -15.073,-15.072 -107.658,107.658 16.077,16.078 163.354,-10.336 -86.845,86.844 15.072,15.073 107.659,-107.659 -15.79,-15.79 -163.928,10.335 z m -540.82,607.522 87.848,87.849 13.781,-13.781 -72.49,-72.489 30.862,-30.862 66.605,66.604 13.78,-13.78 -66.604,-66.605 35.455,-35.455 73.495,73.495 13.78,-13.78 -88.854,-88.855 z m -71.871,-71.871 15.36,15.359 107.658,-107.658 -15.36,-15.359 z m 308.326,280.765 -43.853,-43.853 93.878,-93.878 -15.36,-15.359 -93.878,93.878 -43.853,-43.854 -13.78,13.78 103.066,103.066 z m -333.061,-333.061 -43.853,-43.853 93.878,-93.878 -15.359,-15.359 -93.878,93.878 -43.854,-43.853 -13.78,13.78 103.066,103.066 z"
             style="fill:#005041;fill-opacity:1;fill-rule:nonzero;stroke:none"
             id="path20" />
        </g>
      </g>
    </g>
  </g>
</svg>
